<svg xmlns="http://www.w3.org/2000/svg" width="250" height="130" viewBox="0 85 250 130">
<!-- SVG created with Arrow, by QuiverAI (https://quiver.ai) -->
  <path d="m77.68 90h166c0.72 0 1.33 0.56 1.33 1.31v55.53c0 1.3-0.28 1.96-1.67 1.7l-4.29-2.55h-11.2c1.14 2.69 1.51 3.6 1.51 6.02 0 0.75-0.46 0.95-1.17 0.95s-0.97-0.38-0.97-1.14c0-4.8-2.82-11.06-6.06-12.53h-34.73c-3.24 0-6.34 7.42-6.34 11.68 0 0.54-0.19 1.76-1.42 1.76h-45.33c-0.77 0-0.92-0.27-1.14-1.23-0.63-2.91-2.17-9.91-3.58-12.21h-1.39l-17.13-0.02h-6.34l-0.86 2.64h-8.96l-0.52-2.64h-15.48c-0.72 0-1.58-0.49-1.58-1.24v-47.07c0-0.75 0.61-0.96 1.33-0.96zm164.8 1.34h-163.2v45.63h163.2v-45.63zm0 47.95h-17.48c0.84 1.05 1.53 2.19 2.14 3.39l11.79-0.02 3.55 2.04v-5.41zm-60.13 0h-52.35c1.71 3.34 3.36 7.72 4.24 11.12h43.51c0.45-5 2.01-8.3 4.6-11.12z" fill="#cccccc"/>
  <path d="m70.06 92.61c1.72-0.18 1.05-0.37 1.44 4.5 0.2 2.66 0.23 5.81 0.23 8.34v46.26c0 0.75-1.01 1.68-1.72 1.68h-30.85c-0.82 0-1.35-0.58-1.35-1.37 0-7.4-4.12-13.03-11.65-13.03-6.44 0-10.47 4.7-11.87 13.45-0.12 0.79-0.36 1.27-1.28 1.27h-5.59c-1.36 0-2.42-1.36-2.42-2.79v-5.51c0-0.69 0.29-1.5 1.04-1.8l0.66-10.48c0.19-3 1.99-5.15 5.09-5.74l19.9-4.11 3.03-9.24c-0.74-0.31-0.92-0.97-0.64-1.91 0.98-3.35 3.76-5.34 7.03-5.34h2.3c6.65-8.9 13.96-12.88 26.65-14.18zm-1.07 2.49c-9.93 1.32-16.61 3.68-22.57 11.69h22.79l-0.02-11.69h-0.2zm0.22 14.06h-31.95l-1.65 2.97h17.31c0.86 0 1.27 0.83 1.27 1.54v10.31c0 0.79-0.51 1.43-1.37 1.43h-16.28c-0.8 0-1.43-0.68-1.24-1.51l2.37-9.32-3.75 9.68c-0.15 0.41-0.43 0.82-1.28 1.01l-20.4 4.47c-2.17 0.47-3.44 1.55-3.58 4.08l-0.15 3.15h2.2c1.09 0 1.69 0.89 1.69 1.68v3.34c3.01-4.18 7.32-5.73 12.88-5.73 5.34 0 8.44 2.38 10.8 4.7l33.13 0.01v-31.81zm-29.66 4.88-2.04 9.08h14.37v-9.08h-12.33zm-30.27 24.8v2.87h1.43v-2.87h-1.43zm-1.56 6.57v5.71h5.02v-5.71h-5.02zm61.49-2-31.15-0.02c1 2.27 1.73 4.29 1.73 7.34h29.42v-7.32z" fill="#cccccc"/>
  <path d="m110.7 141c6.67 0 13.22 0.94 13.22 1.69v7.64c0 0.62-0.41 1.01-1.02 1.01h-3.1v-2.27h2.14v-4.63l-4.33-0.05c-1.68-1.48-3.69-2.45-6.91-2.45-3.23 0-5.68 1.42-7.1 3.25h-5.49v-2.27h4.29c1.47-1.21 4.06-1.92 8.3-1.92z" fill="#cccccc"/>
  <path d="m86.08 142-14.59-0.05v2.27l12.16 0.02c1.42-1.29 2.43-2.24 2.43-2.24z" fill="#cccccc"/>
  <path d="m71.49 149h9.15v2.27h-9.15v-2.27z" fill="#cccccc"/>
  <path d="m26.19 141c6.57 0 9.92 5.24 9.92 10.05 0 6.03-5.35 9.84-9.92 9.84-5.98 0-10.08-4.54-10.08-9.65 0-5.43 3.93-10.24 10.08-10.24zm0 2.64c-4.64 0-7.4 3.81-7.4 7.6 0 4.23 3.31 7.2 7.32 7.2 4.35 0 7.41-3.49 7.41-7.39 0-4.04-2.85-7.41-7.33-7.41z" fill="#cccccc"/>
  <path d="m26.04 145.9c3.51 0 5.17 2.76 5.17 5.04 0 3.07-2.42 5.01-5.07 5.01-3.12 0-5.22-2.52-5.22-5.21 0-2.62 1.97-4.84 5.12-4.84zm0.05 2.55c-1.81 0-2.7 1.23-2.7 2.44 0 1.57 1.23 2.76 2.72 2.76 1.65 0 2.71-1.32 2.71-2.79 0-1.41-1.1-2.41-2.73-2.41z" fill="#cccccc"/>
  <path d="m88.95 141c6.57 0 9.68 5.04 9.68 10.05 0 6.22-4.92 9.84-9.68 9.84-5.98 0-9.66-4.67-9.66-9.52 0-5.03 3.78-10.37 9.66-10.37zm0 2.64c-4.44 0-7.18 3.94-7.18 7.73 0 4.22 3.34 7.07 7.1 7.07 4.44 0 7.34-3.59 7.34-7.49 0-4.04-3-7.31-7.26-7.31z" fill="#cccccc"/>
  <path d="m89.08 145.6c3.71 0 5.26 2.89 5.26 5.07 0 3.08-2.3 5.16-5.13 5.16-3.31 0-5.28-2.66-5.28-5.11 0-2.62 1.78-5.12 5.15-5.12zm0.1 2.55c-1.94 0-2.82 1.4-2.82 2.66 0 1.57 1.22 2.74 2.77 2.74 1.75 0 2.82-1.41 2.82-2.83 0-1.52-1.2-2.57-2.77-2.57z" fill="#cccccc"/>
  <path d="m110.4 141.2c6.57 0 9.79 5.04 9.79 9.81 0 5.93-4.87 9.84-9.72 9.84-5.98 0-9.43-4.54-9.43-9.45 0-5.25 3.76-10.2 9.36-10.2zm0.07 2.64c-4.29 0-6.9 3.82-6.9 7.51 0 4.23 3.2 6.95 6.88 6.95 4.34 0 7.23-3.59 7.23-7.39 0-4.04-2.95-7.07-7.21-7.07z" fill="#cccccc"/>
  <path d="m110.4 145.6c3.6 0 5.1 2.8 5.1 5.02 0 2.88-2.21 5.08-5.08 5.08-3.19 0-5.15-2.55-5.15-5.08 0-2.52 1.8-5.02 5.13-5.02zm0.07 2.55c-1.87 0-2.75 1.35-2.75 2.57 0 1.56 1.23 2.73 2.7 2.73 1.64 0 2.75-1.36 2.75-2.73 0-1.52-1.14-2.57-2.7-2.57z" fill="#cccccc"/>
  <path d="m191.9 141c6.57 0 9.68 5.14 9.68 10.05 0 6.03-4.78 9.84-9.54 9.84-5.98 0-9.54-4.64-9.54-9.55 0-5.25 3.79-10.34 9.4-10.34zm0.02 2.64c-4.34 0-6.95 3.91-6.95 7.6 0 4.23 3.27 7.1 6.98 7.1 4.35 0 7.24-3.59 7.24-7.49 0-4.04-3.01-7.21-7.27-7.21z" fill="#cccccc"/>
  <path d="m191.9 145.6c3.52 0 5.17 2.82 5.17 5.09 0 3.08-2.42 5.11-5.06 5.11-3.13 0-5.2-2.55-5.2-5.08 0-2.62 1.95-5.12 5.09-5.12zm0.08 2.55c-1.82 0-2.7 1.35-2.7 2.57 0 1.56 1.23 2.73 2.72 2.73 1.64 0 2.71-1.36 2.71-2.73 0-1.52-1.14-2.57-2.73-2.57z" fill="#cccccc"/>
  <path d="m213.9 141.1c6.57-1.21 10.81 3.93 10.81 9.51 0 6.03-4.57 10.23-9.87 10.23-5.98 0-9.53-4.64-9.53-9.55 0-5.1 3.19-9.25 8.59-10.19zm0.83 2.49c-4.34 0-6.95 3.91-6.95 7.6 0 4.23 3.26 7.1 6.97 7.1 4.35 0 7.24-3.59 7.24-7.49 0-4.04-3-7.21-7.26-7.21z" fill="#cccccc"/>
  <path d="m214.1 145.6c3.67-0.5 5.8 2.37 5.8 5.12 0 3.07-2.37 5.08-5.06 5.08-3.13 0-5.2-2.55-5.2-5.08 0-2.38 1.6-4.72 4.46-5.12zm0.7 2.55c-1.91 0-2.8 1.4-2.8 2.66 0 1.57 1.23 2.74 2.73 2.74 1.64 0 2.75-1.41 2.75-2.83 0-1.47-1.18-2.57-2.68-2.57z" fill="#cccccc"/>
  <path d="m48.83 128.7h3.28c0.81 0 1.15 0.67 1.15 1.23 0 0.69-0.67 1.14-1.36 1.14h-2.29c-0.81 0-1.42-0.55-1.42-1.3 0-0.58 0.19-1.07 0.64-1.07z" fill="#cccccc"/>
</svg>