<svg xmlns="http://www.w3.org/2000/svg" width="250" height="180" fill="none" viewBox="0 35 250 180">
<!-- SVG created with Arrow, by QuiverAI (https://quiver.ai) -->
  <path d="m70.17 148.6c-11.94 0.97-19.89 5.49-25.68 14.72l-3.48 0.23c-3.82 0.26-5.7 2.94-5.65 5.44l1.67 0.47-4.59 10.44-20.33 4.42c-3.32 0.79-4.67 3.05-4.67 5.39l-0.33 10.13-0.76 0.68v6.71c0 0.93 0.45 1.44 1.46 1.44h5.2l0.6-0.58 0.57-6.37c1.95-5.25 5.97-8.03 11.66-7.92 6.89 0.14 12.12 4.22 13.02 10.9l0.22 2.92 31.53-0.03 0.93-0.89 0.07-52.02c0-3.18-0.04-5.69-1.44-6.08z" stroke="#cccccc" stroke-linecap="round" stroke-linejoin="round" stroke-width="2.5"/>
  <path d="m71.39 203.3 10.54 0.1" stroke="#cccccc" stroke-linecap="round" stroke-linejoin="round" stroke-width="2.5"/>
  <path d="m72.01 164.2-36.24-0.24" stroke="#cccccc" stroke-linecap="round" stroke-linejoin="round" stroke-width="2.5"/>
  <path d="m36.62 198.1 33.77-0.18" stroke="#cccccc" stroke-linecap="round" stroke-linejoin="round" stroke-width="2.5"/>
  <path d="m9.53 193.2 2.25-0.05 0.25 5.25" stroke="#cccccc" stroke-linecap="round" stroke-linejoin="round" stroke-width="2.5"/>
  <path d="m26.09 198.3c-6.46 0-9.31 5.64-9.31 8.75 0 5 4.23 8.22 9.08 8.22 5.81 0 9.12-4.7 9.12-8.49 0-4.16-3.26-8.48-8.89-8.48z" stroke="#cccccc" stroke-linecap="round" stroke-linejoin="round" stroke-width="2.5"/>
  <path d="m26.19 203.1c-3.07 0-4.42 2.53-4.42 4.1 0 2.4 2.1 3.91 4.29 3.91 2.88 0 4.39-2.36 4.39-4.16 0-1.98-1.58-3.85-4.26-3.85z" stroke="#cccccc" stroke-linecap="round" stroke-linejoin="round" stroke-width="2.5"/>
  <path d="m90.2 198.3c-6.45 0-8.81 5.64-8.81 8.45 0 5.1 4.52 8.24 8.74 8.24 5.58 0 8.59-4.92 8.59-8.21 0-3.8-2.89-8.48-8.52-8.48z" stroke="#cccccc" stroke-linecap="round" stroke-linejoin="round" stroke-width="2.5"/>
  <path d="m90.31 202.8c-3.07 0-4.42 2.29-4.42 3.99 0 2.4 1.88 3.92 4.12 3.92 2.88 0 4.47-2.2 4.47-4.29 0-1.98-1.49-3.62-4.17-3.62z" stroke="#cccccc" stroke-linecap="round" stroke-linejoin="round" stroke-width="2.5"/>
  <path d="m111.6 198.3c-6.99 0-8.39 6.37-8.39 8.73 0 5.1 4.57 7.96 8.39 7.96 6 0 8.87-5.01 8.87-8.4 0-2.82-0.47-5.92-2.44-7.72l-6.43-0.57z" stroke="#cccccc" stroke-linecap="round" stroke-linejoin="round" stroke-width="2.5"/>
  <path d="m111.7 202.5c-3.46 0-4.63 2.64-4.63 4.24 0 2.4 2.13 3.88 4.19 3.88 3.12 0 4.6-2.45 4.6-4.35 0-1.84-1.36-3.77-4.16-3.77z" stroke="#cccccc" stroke-linecap="round" stroke-linejoin="round" stroke-width="2.5"/>
  <path d="m123.4 199.6-2.87-0.3v5.52h2.83l0.04-5.22z" stroke="#cccccc" stroke-linecap="round" stroke-linejoin="round" stroke-width="2.5"/>
  <path d="m190.8 198.3c-6.45 0-8.26 5.98-8.26 8.58 0 5.4 4.52 8.39 8.34 8.39 5.58 0 8.82-4.85 8.82-8.49 0-3.8-3.27-8.48-8.9-8.48z" stroke="#cccccc" stroke-linecap="round" stroke-linejoin="round" stroke-width="2.5"/>
  <path d="m190.9 202.8c-3.07 0-4.21 2.29-4.21 3.99 0 2.4 2.03 3.77 4.12 3.77 2.88 0 4.39-2.2 4.39-4.14 0-1.98-1.61-3.62-4.3-3.62z" stroke="#cccccc" stroke-linecap="round" stroke-linejoin="round" stroke-width="2.5"/>
  <path d="m213.5 198.5c-5.54 1.64-7.6 7.15-7.28 9.4 0.68 4.85 4.57 7.5 8.76 7.32 5.58-0.24 8.42-5.14 8.27-8.72-0.21-5.1-4.18-8.32-9.75-8z" stroke="#cccccc" stroke-linecap="round" stroke-linejoin="round" stroke-width="2.5"/>
  <path d="m214.1 202.8c-3.02 0.66-3.91 3.31-3.71 4.61 0.47 2.8 2.86 3.77 4.55 3.47 2.83-0.5 3.9-2.72 3.75-4.62-0.17-2.17-1.9-3.89-4.59-3.46z" stroke="#cccccc" stroke-linecap="round" stroke-linejoin="round" stroke-width="2.5"/>
  <path d="m78.71 144.6h164.9v49.27h-164.9v-49.27z" stroke="#cccccc" stroke-linecap="round" stroke-linejoin="round" stroke-width="2.5"/>
  <path d="m130.4 195.8c2.53 4.08 3.34 10.92 3.34 10.92l43.22-0.05c0.22-7.77 4.08-11.18 6.24-12.38" stroke="#cccccc" stroke-linecap="round" stroke-linejoin="round" stroke-width="2.5"/>
  <path d="m223.3 195.8c2.54 2.02 4.42 7.12 4.42 11.81" stroke="#cccccc" stroke-linecap="round" stroke-linejoin="round" stroke-width="2.5"/>
  <path d="m225.6 199.6 14.35-0.1 3.71 3.25v-8.65" stroke="#cccccc" stroke-linecap="round" stroke-linejoin="round" stroke-width="2.5"/>
  <path d="m96.14 195.8 0.15 1.32 6.67-0.09 0.76-1.27" stroke="#cccccc" stroke-linecap="round" stroke-linejoin="round" stroke-width="2.5"/>
  <path d="m52.52 185.5h-2.43" stroke="#cccccc" stroke-linecap="round" stroke-linejoin="round" stroke-width="2.5"/>
  <path d="m37.64 178.8 1.17-8.9h14.1c0.81 0 1 0.23 1 1.28v8.51c0 0.58-0.3 0.75-1.2 0.75l-14.82-0.2-0.25-1.44z" stroke="#cccccc" stroke-linecap="round" stroke-linejoin="round" stroke-width="2.5"/>
  <path d="m183.2 68.91c4.27 4.85 3.5 13.1 0.57 17.87-5.95 9.63-16.56 10.11-23.22 6.29 4.63-3.08 5.62-7.88 4.73-12.19 10.61 3.51 18.22-7.9 16.99-16.95-1.44-10.32-11.37-14.42-19.09-12.3-0.95-11.73-10.2-18.63-19.45-18.63-11.73 0-17.45 6.99-20.33 14.21-13.2 0-20.65 9-20.65 18.85 0 3.18 0.85 5.86 2.13 7.55-9.1-0.32-14.78 7.4-13.73 16.12l-2.4-0.07c-6.88-0.45-11.35 6.1-10.85 12.52l0.1 0.42c-7.67 1.79-12.09 10.69-9.17 16.31 0.79 2.01 1.65 3.16 2.08 3.8-2.04 2.73-3.21 4.32-1.99 6.48-3.71 2.8-3.14 9.23-3.14 14.85" stroke="#cccccc" stroke-linecap="round" stroke-linejoin="round" stroke-width="2.2"/>
  <path d="m72.01 143.5c1.6-5.28 4.91-7.44 6.7-8.31l1.98-2.15c6.5 2.97 12.98-2.08 12.66-9.9l1.48-2.02c2.83 3.46 6.49 4.55 10.26 4.18 6.83-0.66 11.93-5.46 13.15-11.68 8.47 3.92 18.45-1.18 18.97-11.28l-0.2-1.1c6.11-0.15 10.65-4.04 11.97-9.51 4.98 3.28 10.58 2.08 13.74-1.89" stroke="#cccccc" stroke-linecap="round" stroke-linejoin="round" stroke-width="2.2"/>
  <path d="m120.5 66.16c-7.9-2.3-15.37 4.12-15.47 13.58" stroke="#cccccc" stroke-linecap="round" stroke-linejoin="round" stroke-width="2.2"/>
  <path d="m101.1 87.05c-7.17 0.71-12 6.98-11.9 12.96" stroke="#cccccc" stroke-linecap="round" stroke-linejoin="round" stroke-width="2.2"/>
  <path d="m131.6 88.61c3.61 8.28-2.29 17.28-11.03 17.13" stroke="#cccccc" stroke-linecap="round" stroke-linejoin="round" stroke-width="2.2"/>
  <path d="m100.4 113.9c-1.1 6.42-6.48 10.13-11.61 9.36" stroke="#cccccc" stroke-linecap="round" stroke-linejoin="round" stroke-width="2.2"/>
  <path d="m130.1 47.11c3.66-5.83 9.04-8.65 15.65-7.12" stroke="#cccccc" stroke-linecap="round" stroke-linejoin="round" stroke-width="2.5"/>
</svg>