<svg xmlns="http://www.w3.org/2000/svg" width="250" height="180" fill="none" viewBox="0 35 250 180" preserveAspectRatio="xMidYMax meet">
<!-- SVG created with Arrow, by QuiverAI (https://quiver.ai) -->
  <path d="m74.99 205.1 4.99-0.04" stroke="#cccccc" stroke-linecap="round" stroke-linejoin="round" stroke-miterlimit="10" stroke-width="2.5"/>
  <path d="m78.31 145h164.7v49.44h-164.7v-49.44z" stroke="#cccccc" stroke-linecap="round" stroke-linejoin="round" stroke-miterlimit="10" stroke-width="2.5"/>
  <path d="m70.83 198.5v9.46l-31.24-0.01c0.02-3.01-0.31-5.84-3.09-9.45h34.33z" stroke="#cccccc" stroke-linecap="round" stroke-linejoin="round" stroke-miterlimit="10" stroke-width="2.5"/>
  <path d="m70.59 149.5-2.97 0.52c-9.79 1.43-16.44 5.75-22.83 14.06h25.37c0.54 0 0.57-0.11 0.57-2.44v-9.24c0-2.22 0.11-2.9-0.14-2.9z" stroke="#cccccc" stroke-linecap="round" stroke-linejoin="round" stroke-miterlimit="10" stroke-width="2.5"/>
  <path d="m35.81 179.2 3.21-10.1 1.04 0.01h13.36c0.43 0 0.16 0.17 0.18 0.89v9.18c0 0.61-0.29 0.94-0.81 0.94h-15.81c-0.97 0-1.49-0.23-1.17-0.92z" stroke="#cccccc" stroke-linecap="round" stroke-linejoin="round" stroke-miterlimit="10" stroke-width="2.5"/>
  <path d="m39.74 165.1h30.4v32.9l-34.33-0.1c-2.97-2.76-5.72-4.03-9.99-3.99-4.85 0.04-8.6 1.96-11.12 6.19h-4.09l0.1-8.26c0.06-4.06 1.26-6.66 5.42-7.52l15.74-3.42c1.32-0.34 2.34-0.7 2.76-2l1.36-5.71c0.45-2.39 0.23-8.09 3.75-8.09z" stroke="#cccccc" stroke-linecap="round" stroke-linejoin="round" stroke-miterlimit="10" stroke-width="2.5"/>
  <path d="m12.79 198.4h-5.79v8.26c0 0.71 0.18 1.2 1.12 1.2h4.67v-9.46z" stroke="#cccccc" stroke-linecap="round" stroke-linejoin="round" stroke-miterlimit="10" stroke-width="2.5"/>
  <path d="m129.8 196.1c2.25 3.55 3.04 7.46 3.37 11.6h44.09c0.33-5.22 1.88-8.91 5.11-12.33h-53.33l0.76 0.73z" stroke="#cccccc" stroke-linecap="round" stroke-linejoin="round" stroke-miterlimit="10" stroke-width="2.5"/>
  <path d="m225.9 207.7c-0.32-5.22-1.87-8.91-4.62-12.33h16.61l5.08 2.99v4.73l-4.22-2.9h-13.45l0.6 0.74" stroke="#cccccc" stroke-linecap="round" stroke-linejoin="round" stroke-miterlimit="10" stroke-width="2.5"/>
  <path d="m122.9 199h-10.97c-6.21 0-8.99 4.06-8.99 8.1 0 5.46 4.29 7.87 7.93 7.87 5.86 0 9.03-4.59 8.73-9.84h3.3v-6.13z" stroke="#cccccc" stroke-linecap="round" stroke-linejoin="round" stroke-miterlimit="10" stroke-width="2.5"/>
  <path d="m111 210.9c3.27 0 4.8-2.48 4.8-4.83 0-2.7-1.97-4.63-4.5-4.63-3.14 0-4.97 2.66-4.97 4.96 0 2.65 2.08 4.5 4.67 4.5z" stroke="#cccccc" stroke-linecap="round" stroke-linejoin="round" stroke-miterlimit="10" stroke-width="2.5"/>
  <path d="m213.7 198.2c-5.92 1.29-7.9 6.93-7.9 9.03 0 5.45 4.6 7.86 8.48 7.73 5.87-0.2 8.39-4.59 8.39-8.2 0-5.45-3.88-8.86-8.97-8.56z" stroke="#cccccc" stroke-linecap="round" stroke-linejoin="round" stroke-miterlimit="10" stroke-width="2.5"/>
  <path d="m213.1 202.9c-2.72 1.57-3.05 5.07-1.18 7.03 1.58 1.68 4.78 1.58 6.43-0.61 1.3-1.79 1.16-4.61-0.65-6.15-1.32-1.01-3.08-1.11-4.6-0.27z" stroke="#cccccc" stroke-linecap="round" stroke-linejoin="round" stroke-miterlimit="10" stroke-width="2.5"/>
  <path d="m189.9 198.7c-5.1 1.11-6.93 5.8-6.8 8.45 0.26 5.16 4.42 7.94 8.06 7.81 5.86-0.2 8.11-5.03 7.78-8.65-0.45-5.04-4.2-8.28-9.04-7.61z" stroke="#cccccc" stroke-linecap="round" stroke-linejoin="round" stroke-miterlimit="10" stroke-width="2.5"/>
  <path d="m189.7 203.4c-3.01 1.54-2.88 5.53-0.74 6.93 2.08 1.34 4.92 0.37 5.83-1.74 1.23-3.01-0.55-6.41-5.09-5.19z" stroke="#cccccc" stroke-linecap="round" stroke-linejoin="round" stroke-miterlimit="10" stroke-width="2.5"/>
  <path d="m89.86 198.6c-5.87 0.47-8.11 5.66-7.98 8.61 0.26 5.15 4.55 7.75 8.19 7.62 5.86-0.2 8.1-5.03 7.78-8.65-0.46-4.57-3.56-7.58-7.99-7.58z" stroke="#cccccc" stroke-linecap="round" stroke-linejoin="round" stroke-miterlimit="10" stroke-width="2.5"/>
  <path d="m89.31 203.1c-3.47 1.4-3.73 5.68-1.33 7.41 2.08 1.47 5.19 0.37 6.21-1.71 1.55-3.3-0.47-6.7-4.88-5.7z" stroke="#cccccc" stroke-linecap="round" stroke-linejoin="round" stroke-miterlimit="10" stroke-width="2.5"/>
  <path d="m26.41 198.4c-6.2 0.67-8.79 5.93-9.05 8.71-0.52 4.87 3.9 8.08 8.32 7.91 6.2-0.23 9.17-4.75 8.98-8.65-0.26-4.73-3.55-7.97-8.25-7.97z" stroke="#cccccc" stroke-linecap="round" stroke-linejoin="round" stroke-miterlimit="10" stroke-width="2.5"/>
  <path d="m25.91 202.9c-3.6 0.99-4.25 5.05-1.98 7.16 2.08 1.95 5.38 0.85 6.53-1.07 1.78-3.11-0.52-6.95-4.55-6.09z" stroke="#cccccc" stroke-linecap="round" stroke-linejoin="round" stroke-miterlimit="10" stroke-width="2.5"/>
  <path d="m96.32 195.4h6.28l-0.49 1.8h-5.27l-0.52-1.8z" stroke="#cccccc" stroke-linecap="round" stroke-linejoin="round" stroke-miterlimit="10" stroke-width="2.5"/>
  <path d="m50.12 185.9h2.59" stroke="#cccccc" stroke-linecap="round" stroke-linejoin="round" stroke-miterlimit="10" stroke-width="2"/>
  <path d="m163.2 51.61c-1.04-11.52-10.07-18.73-20.36-18.6-10.16-0.13-16.99 6.37-19.7 14.2-11.61-0.55-20.5 8.03-20.5 18.11 0 3.77 1.17 7.17 2.21 8.3-8.64 0-14.73 6.54-14.21 15.28 0 1.01 0.14 1.87 0.4 2.74-1.3-1.21-2.34-1.73-4.25-1.73-5.97 0-9.55 6.52-8.51 12.78-6.96 1.74-10.97 7.25-10.51 12.9 0.39 3.58 1.88 5.69 3.48 7.67-1.2 1.95-3.16 3.15-2.7 6.44 0.06 0.44 0.13 0.91 0.32 1.21-3.09 2.65-3.09 7.12-3.09 13.05v0.44" stroke="#cccccc" stroke-linecap="round" stroke-linejoin="round" stroke-miterlimit="10" stroke-width="2.25"/>
  <path d="m110.4 67.82c-4.48 2.99-5.8 7.34-5.93 11.54-0.13-1.57-0.59-3.2-1.42-5.46" stroke="#cccccc" stroke-linecap="round" stroke-linejoin="round" stroke-miterlimit="10" stroke-width="2.25"/>
  <path d="m100.1 87.32c-7.09 1.58-11.07 7.54-11.27 12.89" stroke="#cccccc" stroke-linecap="round" stroke-linejoin="round" stroke-miterlimit="10" stroke-width="2.25"/>
  <path d="m120.7 66.22c-3.58-1.2-6.78-0.9-10.28 1.53" stroke="#cccccc" stroke-linecap="round" stroke-linejoin="round" stroke-miterlimit="10" stroke-width="2.25"/>
  <path d="m145.3 40.51c-7.15-1.36-12.25 3.15-15.61 7.3" stroke="#cccccc" stroke-linecap="round" stroke-linejoin="round" stroke-miterlimit="10" stroke-width="2.25"/>
  <path d="m131.1 88.77c3.46 8.34-3.01 17.35-11 17.35" stroke="#cccccc" stroke-linecap="round" stroke-linejoin="round" stroke-miterlimit="10" stroke-width="2.25"/>
  <path d="m135.1 101.4c1.1 7.99-6.31 15.28-14.31 14.24-1.77-0.23-2.6-0.7-3.58-1.43-1.11 7.86-7.87 12.28-14.43 10.88-3.58-0.8-5.72-2.49-6.95-4.2" stroke="#cccccc" stroke-linecap="round" stroke-linejoin="round" stroke-miterlimit="10" stroke-width="2.25"/>
  <path d="m132.8 99.04c7.15 3.12 13.51-1.23 15.87-7.32 0.14-0.34 0.2-0.61 0.26-0.88 1.97 1.81 4.33 2.95 7.05 2.75 6.96-0.67 10.42-7.58 8.77-12.77 9.47 2.61 17.33-6.1 17.33-14.2 0-8.74-8.12-16.5-19.4-14.55-0.39 0.06-0.32 0.06-0.32 0.06" stroke="#cccccc" stroke-linecap="round" stroke-linejoin="round" stroke-miterlimit="10" stroke-width="2.25"/>
  <path d="m88.43 123.2c6.83 0.74 11.31-5.39 11.64-9.26" stroke="#cccccc" stroke-linecap="round" stroke-linejoin="round" stroke-miterlimit="10" stroke-width="2.25"/>
  <path d="m71.95 143.8c0.91-3.62 2.99-6.36 6.26-7.97 1.1-0.7 1.69-1.87 2.21-3.24 6.83 3.14 12.56-1.66 12.56-7.95 0-0.9-0.26-1.7-0.72-2.3" stroke="#cccccc" stroke-linecap="round" stroke-linejoin="round" stroke-miterlimit="10" stroke-width="2.25"/>
</svg>